<svg width="18" height="18" viewBox="0 0 18 18" fill="none" xmlns="http://www.w3.org/2000/svg">
<path d="M5.22702 8.60209L10.852 2.97709C10.9043 2.92482 10.9663 2.88337 11.0346 2.85508C11.1029 2.8268 11.1761 2.81224 11.25 2.81224C11.3239 2.81224 11.3971 2.8268 11.4654 2.85508C11.5337 2.88337 11.5957 2.92482 11.648 2.97709C11.7002 3.02935 11.7417 3.09139 11.77 3.15968C11.7982 3.22796 11.8128 3.30115 11.8128 3.37505C11.8128 3.44896 11.7982 3.52215 11.77 3.59043C11.7417 3.65872 11.7002 3.72076 11.648 3.77302L6.42023 9.00005L11.648 14.2271C11.7535 14.3326 11.8128 14.4758 11.8128 14.6251C11.8128 14.7743 11.7535 14.9175 11.648 15.023C11.5424 15.1286 11.3993 15.1879 11.25 15.1879C11.1007 15.1879 10.9576 15.1286 10.852 15.023L5.22702 9.39802C5.17473 9.34578 5.13324 9.28374 5.10493 9.21546C5.07662 9.14717 5.06205 9.07398 5.06205 9.00005C5.06205 8.92613 5.07662 8.85294 5.10493 8.78465C5.13324 8.71636 5.17473 8.65433 5.22702 8.60209Z" fill="#010102"/>
</svg>
