<svg width="18" height="18" viewBox="0 0 18 18" fill="none" xmlns="http://www.w3.org/2000/svg">
<path d="M16.425 1.65927C15.8923 1.12659 14.9063 1.0979 14.2774 1.42021C13.7638 1.59684 13.2233 1.7954 12.672 2.01815L12.6776 2.02377C11.2292 2.63971 9.06244 3.73377 7.32825 5.34365C6.111 6.47427 5.4135 7.3439 4.94607 8.13646L1.96594 9.23334C1.87728 9.26591 1.79825 9.32028 1.73614 9.39144C1.67403 9.4626 1.63084 9.54826 1.61056 9.64051C1.59027 9.73275 1.59354 9.82863 1.62006 9.91928C1.64658 10.0099 1.6955 10.0924 1.76232 10.1592L8.02744 16.4238C8.09421 16.4905 8.17669 16.5393 8.26727 16.5657C8.35786 16.5922 8.45364 16.5954 8.5458 16.5751C8.63797 16.5548 8.72354 16.5117 8.79466 16.4497C8.86577 16.3876 8.92014 16.3087 8.95275 16.2201L10.1925 12.853C11.097 12.3141 12.0054 11.6352 12.9533 10.6874C14.2976 9.34302 15.4091 6.9974 16.0543 5.42409L16.0594 5.42859C16.2844 4.87171 16.4858 4.32552 16.6635 3.8069C16.9858 3.17802 17.0798 2.31402 16.425 1.65927Z" fill="#CA0B4A"/>
<path d="M13.1057 2.45532C11.6899 3.04032 9.46181 4.13045 7.71131 5.75607C6.57788 6.80795 5.92706 7.60895 5.49506 8.31545C5.0625 9.02138 4.83413 9.6542 4.55963 10.4192L4.5585 10.4231C4.46288 10.6898 4.36163 10.9727 4.24406 11.2748L6.80681 13.8375C8.83294 13.005 10.5981 12.2468 12.5556 10.2898C13.878 8.96682 14.9963 6.5537 15.6234 4.99051L13.1057 2.45532Z" fill="#F4F4F4"/>
<path d="M13.797 6.32812C13.797 6.81297 13.6044 7.27796 13.2616 7.6208C12.9187 7.96364 12.4537 8.15625 11.9689 8.15625C11.484 8.15625 11.019 7.96364 10.6762 7.6208C10.3334 7.27796 10.1407 6.81297 10.1407 6.32812C10.1407 5.84328 10.3334 5.37829 10.6762 5.03545C11.019 4.69261 11.484 4.5 11.9689 4.5C12.4537 4.5 12.9187 4.69261 13.2616 5.03545C13.6044 5.37829 13.797 5.84328 13.797 6.32812Z" fill="#9B9B9B"/>
<path d="M13.2345 6.32812C13.2345 6.66379 13.1012 6.98571 12.8638 7.22306C12.6265 7.46041 12.3045 7.59375 11.9689 7.59375C11.6332 7.59375 11.3113 7.46041 11.0739 7.22306C10.8366 6.98571 10.7032 6.66379 10.7032 6.32812C10.7032 5.99246 10.8366 5.67054 11.0739 5.43319C11.3113 5.19584 11.6332 5.0625 11.9689 5.0625C12.3045 5.0625 12.6265 5.19584 12.8638 5.43319C13.1012 5.67054 13.2345 5.99246 13.2345 6.32812Z" fill="#83CBFF"/>
<path d="M1.37869 16.6554C0.981 16.2588 1.14075 13.4998 2.547 12.9373C2.547 12.9373 3.95325 12.3748 4.85887 13.2748C5.76562 14.1753 5.3595 15.1873 5.3595 15.1873C4.96181 16.3803 3.26812 16.8551 3.06956 16.6554C2.95987 16.5463 3.15731 16.346 3.06956 16.2583C2.98125 16.17 2.84569 16.2707 2.47331 16.4568C2.20781 16.5896 1.53788 16.8146 1.37869 16.6554Z" fill="#FF8257"/>
<path d="M3.4245 11.8462C3.50285 11.7678 3.59589 11.7056 3.6983 11.6632C3.8007 11.6207 3.91046 11.5989 4.02131 11.5989C4.13216 11.5989 4.24192 11.6207 4.34432 11.6632C4.44673 11.7056 4.53977 11.7678 4.61812 11.8462L6.60656 13.8352C6.76485 13.9934 6.8538 14.208 6.85385 14.4318C6.8539 14.6556 6.76505 14.8703 6.60684 15.0285C6.44863 15.1868 6.23402 15.2758 6.01023 15.2758C5.78643 15.2759 5.57178 15.187 5.4135 15.0288L3.4245 13.0398C3.26632 12.8816 3.17746 12.667 3.17746 12.4433C3.17746 12.2196 3.26632 12.005 3.4245 11.8468" fill="#533566"/>
<path d="M8.73844 10.5309C8.98707 9.85593 8.33063 9.19893 7.65507 9.44756L3.65344 10.9207C3.56478 10.9533 3.48575 11.0077 3.42364 11.0789C3.36153 11.15 3.31834 11.2357 3.29806 11.3279C3.27777 11.4202 3.28104 11.516 3.30756 11.6067C3.33408 11.6973 3.383 11.7799 3.44982 11.8466L6.33994 14.7362C6.40671 14.8029 6.48919 14.8517 6.57977 14.8781C6.67036 14.9046 6.76614 14.9078 6.8583 14.8875C6.95047 14.8672 7.03604 14.8241 7.10716 14.7621C7.17827 14.7 7.23264 14.6211 7.26525 14.5326L8.73844 10.5309Z" fill="#F92F60"/>
</svg>
