<svg width="44" height="44" viewBox="0 0 44 44" fill="none" xmlns="http://www.w3.org/2000/svg">
<rect width="44" height="44" rx="10" fill="white" fill-opacity="0.6"/>
<path d="M32.4398 12.3825C32.4273 12.1685 32.3367 11.9665 32.185 11.8148C32.0334 11.6632 31.8314 11.5725 31.6173 11.56C23.2906 11.0711 16.6209 13.578 13.7772 18.2811C12.7915 19.8899 12.3057 21.7553 12.3816 23.6405C12.4439 25.3818 12.9514 27.1405 13.8898 28.8741L11.7559 31.0069C11.5918 31.1711 11.4995 31.3938 11.4995 31.626C11.4995 31.8582 11.5918 32.0809 11.7559 32.245C11.9201 32.4092 12.1428 32.5015 12.375 32.5015C12.6072 32.5015 12.8299 32.4092 12.9941 32.245L15.1269 30.1111C16.8594 31.0485 18.6192 31.556 20.3594 31.6183C20.4811 31.6227 20.6026 31.6249 20.7236 31.6249C22.4864 31.6296 24.2159 31.1441 25.7187 30.2227C30.4219 27.3789 32.9298 20.7104 32.4398 12.3825ZM24.8164 28.7264C22.3281 30.2336 19.3827 30.2577 16.4262 28.8107L26.1202 19.1179C26.2015 19.0366 26.2659 18.94 26.3099 18.8338C26.3539 18.7276 26.3766 18.6138 26.3766 18.4988C26.3766 18.3838 26.3539 18.27 26.3099 18.1638C26.2659 18.0575 26.2015 17.961 26.1202 17.8797C26.0389 17.7984 25.9423 17.7339 25.8361 17.6899C25.7299 17.6459 25.6161 17.6233 25.5011 17.6233C25.3861 17.6233 25.2723 17.6459 25.1661 17.6899C25.0598 17.7339 24.9633 17.7984 24.882 17.8797L15.1892 27.578C13.7466 24.6249 13.7673 21.6718 15.2734 19.1879C17.6895 15.1989 23.4328 13.0147 30.7292 13.275C30.9906 20.566 28.8053 26.3104 24.8164 28.7264Z" fill="#2BA650"/>
</svg>
