<svg width="44" height="44" viewBox="0 0 44 44" fill="none" xmlns="http://www.w3.org/2000/svg">
<rect width="44" height="44" rx="10" fill="white" fill-opacity="0.6"/>
<path d="M29.6103 22.1159L23.9687 20.0312L21.8906 14.3853C21.7676 14.051 21.5449 13.7625 21.2527 13.5586C20.9605 13.3548 20.6128 13.2456 20.2566 13.2456C19.9003 13.2456 19.5526 13.3548 19.2604 13.5586C18.9682 13.7625 18.7456 14.051 18.6225 14.3853L16.5312 20.0312L10.8853 22.1094C10.551 22.2324 10.2624 22.4551 10.0586 22.7473C9.85482 23.0395 9.74554 23.3872 9.74554 23.7434C9.74554 24.0997 9.85482 24.4474 10.0586 24.7396C10.2624 25.0318 10.551 25.2544 10.8853 25.3775L16.5312 27.4688L18.6094 33.1147C18.7324 33.449 18.9551 33.7375 19.2473 33.9414C19.5395 34.1452 19.8872 34.2544 20.2434 34.2544C20.5997 34.2544 20.9474 34.1452 21.2396 33.9414C21.5318 33.7375 21.7544 33.449 21.8775 33.1147L23.9687 27.4688L29.6147 25.3906C29.949 25.2676 30.2375 25.0449 30.4414 24.7527C30.6452 24.4605 30.7544 24.1128 30.7544 23.7566C30.7544 23.4003 30.6452 23.0526 30.4414 22.7604C30.2375 22.4682 29.949 22.2456 29.6147 22.1225L29.6103 22.1159ZM22.9844 25.9616C22.8656 26.0053 22.7577 26.0744 22.6682 26.1639C22.5787 26.2534 22.5097 26.3612 22.4659 26.48L20.25 32.4836L18.0384 26.4844C17.9947 26.3644 17.9253 26.2554 17.835 26.165C17.7446 26.0747 17.6356 26.0053 17.5156 25.9616L11.5164 23.75L17.5156 21.5384C17.6356 21.4947 17.7446 21.4253 17.835 21.335C17.9253 21.2446 17.9947 21.1356 18.0384 21.0156L20.25 15.0164L22.4616 21.0156C22.5053 21.1344 22.5743 21.2423 22.6639 21.3318C22.7534 21.4213 22.8612 21.4903 22.98 21.5341L28.9836 23.75L22.9844 25.9616ZM23.75 12.375C23.75 12.1429 23.8422 11.9204 24.0063 11.7563C24.1704 11.5922 24.3929 11.5 24.625 11.5H26.375V9.75C26.375 9.51794 26.4672 9.29538 26.6313 9.13128C26.7954 8.96719 27.0179 8.875 27.25 8.875C27.4821 8.875 27.7046 8.96719 27.8687 9.13128C28.0328 9.29538 28.125 9.51794 28.125 9.75V11.5H29.875C30.1071 11.5 30.3296 11.5922 30.4937 11.7563C30.6578 11.9204 30.75 12.1429 30.75 12.375C30.75 12.6071 30.6578 12.8296 30.4937 12.9937C30.3296 13.1578 30.1071 13.25 29.875 13.25H28.125V15C28.125 15.2321 28.0328 15.4546 27.8687 15.6187C27.7046 15.7828 27.4821 15.875 27.25 15.875C27.0179 15.875 26.7954 15.7828 26.6313 15.6187C26.4672 15.4546 26.375 15.2321 26.375 15V13.25H24.625C24.3929 13.25 24.1704 13.1578 24.0063 12.9937C23.8422 12.8296 23.75 12.6071 23.75 12.375ZM35.125 17.625C35.125 17.8571 35.0328 18.0796 34.8687 18.2437C34.7046 18.4078 34.4821 18.5 34.25 18.5H33.375V19.375C33.375 19.6071 33.2828 19.8296 33.1187 19.9937C32.9546 20.1578 32.7321 20.25 32.5 20.25C32.2679 20.25 32.0454 20.1578 31.8813 19.9937C31.7172 19.8296 31.625 19.6071 31.625 19.375V18.5H30.75C30.5179 18.5 30.2954 18.4078 30.1313 18.2437C29.9672 18.0796 29.875 17.8571 29.875 17.625C29.875 17.3929 29.9672 17.1704 30.1313 17.0063C30.2954 16.8422 30.5179 16.75 30.75 16.75H31.625V15.875C31.625 15.6429 31.7172 15.4204 31.8813 15.2563C32.0454 15.0922 32.2679 15 32.5 15C32.7321 15 32.9546 15.0922 33.1187 15.2563C33.2828 15.4204 33.375 15.6429 33.375 15.875V16.75H34.25C34.4821 16.75 34.7046 16.8422 34.8687 17.0063C35.0328 17.1704 35.125 17.3929 35.125 17.625Z" fill="#6D53ED"/>
</svg>
