<svg width="23" height="23" viewBox="0 0 23 23" fill="none" xmlns="http://www.w3.org/2000/svg">
<path d="M12.6875 17.0625C12.6875 17.3221 12.6105 17.5758 12.4663 17.7917C12.3221 18.0075 12.1171 18.1758 11.8773 18.2751C11.6374 18.3744 11.3735 18.4004 11.1189 18.3498C10.8643 18.2991 10.6305 18.1741 10.4469 17.9906C10.2634 17.807 10.1384 17.5732 10.0877 17.3186C10.0371 17.064 10.0631 16.8001 10.1624 16.5602C10.2618 16.3204 10.43 16.1154 10.6458 15.9712C10.8617 15.827 11.1154 15.75 11.375 15.75C11.7231 15.75 12.0569 15.8883 12.3031 16.1344C12.5492 16.3806 12.6875 16.7144 12.6875 17.0625ZM11.375 5.25C8.96219 5.25 7 7.01641 7 9.1875V9.625C7 9.85706 7.09219 10.0796 7.25629 10.2437C7.42038 10.4078 7.64294 10.5 7.875 10.5C8.10707 10.5 8.32963 10.4078 8.49372 10.2437C8.65782 10.0796 8.75 9.85706 8.75 9.625V9.1875C8.75 7.98437 9.92797 7 11.375 7C12.822 7 14 7.98437 14 9.1875C14 10.3906 12.822 11.375 11.375 11.375C11.1429 11.375 10.9204 11.4672 10.7563 11.6313C10.5922 11.7954 10.5 12.0179 10.5 12.25V13.125C10.5 13.3571 10.5922 13.5796 10.7563 13.7437C10.9204 13.9078 11.1429 14 11.375 14C11.6071 14 11.8296 13.9078 11.9937 13.7437C12.1578 13.5796 12.25 13.3571 12.25 13.125V13.0462C14.245 12.6798 15.75 11.0884 15.75 9.1875C15.75 7.01641 13.7878 5.25 11.375 5.25ZM22.75 11.375C22.75 13.6248 22.0829 15.824 20.833 17.6946C19.5831 19.5652 17.8065 21.0232 15.728 21.8841C13.6495 22.7451 11.3624 22.9703 9.15585 22.5314C6.94932 22.0925 4.92249 21.0092 3.33167 19.4183C1.74084 17.8275 0.657479 15.8007 0.218573 13.5942C-0.220334 11.3876 0.00492861 9.10048 0.865875 7.02198C1.72682 4.94347 3.18478 3.16693 5.05539 1.91703C6.926 0.667132 9.12524 0 11.375 0C14.3909 0.0031848 17.2823 1.20264 19.4148 3.33518C21.5474 5.46771 22.7468 8.35914 22.75 11.375ZM21 11.375C21 9.47135 20.4355 7.61046 19.3779 6.02764C18.3203 4.44481 16.8171 3.21115 15.0583 2.48266C13.2996 1.75417 11.3643 1.56356 9.49726 1.93494C7.63019 2.30632 5.91518 3.22302 4.5691 4.5691C3.22302 5.91518 2.30633 7.63019 1.93495 9.49726C1.56356 11.3643 1.75417 13.2996 2.48266 15.0583C3.21116 16.8171 4.44482 18.3203 6.02764 19.3779C7.61046 20.4355 9.47136 21 11.375 21C13.9268 20.9971 16.3733 19.9821 18.1777 18.1777C19.9821 16.3733 20.9971 13.9268 21 11.375Z" fill="#6D53ED"/>
</svg>
