<svg width="22" height="22" viewBox="0 0 22 22" fill="none" xmlns="http://www.w3.org/2000/svg">
<mask id="mask0_23_1161" style="mask-type:luminance" maskUnits="userSpaceOnUse" x="0" y="0" width="22" height="22">
<path d="M22 0H0V22H22V0Z" fill="white"/>
</mask>
<g mask="url(#mask0_23_1161)">
<path d="M16.3075 20.8543H5.69251C3.18084 20.8543 1.14584 18.8102 1.14584 16.2985V9.506C1.14584 8.2593 1.91584 6.6918 2.90584 5.9218L7.84668 2.0718C9.33168 0.916807 11.7058 0.861807 13.2458 1.94347L18.9108 5.91264C20.0017 6.67347 20.8542 8.30514 20.8542 9.63433V16.3077C20.8542 18.8102 18.8192 20.8543 16.3075 20.8543ZM8.69001 3.15347L3.74918 7.00347C3.09834 7.5168 2.52084 8.68097 2.52084 9.506V16.2985C2.52084 18.0493 3.94168 19.4793 5.69251 19.4793H16.3075C18.0583 19.4793 19.4792 18.0585 19.4792 16.3077V9.63433C19.4792 8.7543 18.8467 7.53513 18.1225 7.04013L12.4575 3.07097C11.4125 2.33764 9.68917 2.3743 8.69001 3.15347Z" fill="#010102"/>
<path d="M11 17.1875C10.6242 17.1875 10.3125 16.8758 10.3125 16.5V13.75C10.3125 13.3742 10.6242 13.0625 11 13.0625C11.3758 13.0625 11.6875 13.3742 11.6875 13.75V16.5C11.6875 16.8758 11.3758 17.1875 11 17.1875Z" fill="#010102"/>
</g>
</svg>
