<svg width="28" height="28" viewBox="0 0 28 28" fill="none" xmlns="http://www.w3.org/2000/svg">
<path d="M24.4398 4.38254C24.4273 4.16848 24.3367 3.96646 24.185 3.81483C24.0334 3.66321 23.8314 3.57254 23.6173 3.56004C15.2906 3.07113 8.62094 5.57801 5.77719 10.2811C4.79146 11.8899 4.30572 13.7553 4.38156 15.6405C4.4439 17.3818 4.9514 19.1405 5.88984 20.8741L3.75594 23.0069C3.59175 23.1711 3.49951 23.3938 3.49951 23.626C3.49951 23.8582 3.59175 24.0809 3.75594 24.245C3.92012 24.4092 4.1428 24.5015 4.375 24.5015C4.60719 24.5015 4.82988 24.4092 4.99406 24.245L7.12687 22.1111C8.85937 23.0485 10.6192 23.556 12.3594 23.6183C12.4811 23.6227 12.6026 23.6249 12.7236 23.6249C14.4864 23.6296 16.2159 23.1441 17.7187 22.2227C22.4219 19.3789 24.9298 12.7104 24.4398 4.38254ZM16.8164 20.7264C14.3281 22.2336 11.3827 22.2577 8.42625 20.8107L18.1202 11.1179C18.2015 11.0366 18.2659 10.94 18.3099 10.8338C18.3539 10.7276 18.3766 10.6138 18.3766 10.4988C18.3766 10.3838 18.3539 10.27 18.3099 10.1638C18.2659 10.0575 18.2015 9.96102 18.1202 9.87973C18.0389 9.79843 17.9423 9.73394 17.8361 9.68995C17.7299 9.64595 17.6161 9.6233 17.5011 9.6233C17.3861 9.6233 17.2723 9.64595 17.1661 9.68995C17.0598 9.73394 16.9633 9.79843 16.882 9.87973L7.18922 19.578C5.74656 16.6249 5.76734 13.6718 7.27344 11.1879C9.68953 7.19895 15.4328 5.01473 22.7292 5.27504C22.9906 12.566 20.8053 18.3104 16.8164 20.7264Z" fill="#2BA650"/>
</svg>
