<svg width="20" height="20" viewBox="0 0 20 20" fill="none" xmlns="http://www.w3.org/2000/svg">
<g opacity="0.5" clip-path="url(#clip0_23_1505)">
<mask id="mask0_23_1505" style="mask-type:luminance" maskUnits="userSpaceOnUse" x="0" y="0" width="20" height="20">
<path d="M20 0H0V20H20V0Z" fill="white"/>
</mask>
<g mask="url(#mask0_23_1505)">
<path d="M5 8.33317V6.6665C5 3.90817 5.83333 1.6665 10 1.6665C14.1667 1.6665 15 3.90817 15 6.6665V8.33317" stroke="black" stroke-width="1.5" stroke-linecap="round" stroke-linejoin="round"/>
<path d="M7.91666 13.3333C7.91666 14.4833 8.85 15.4167 10 15.4167C11.15 15.4167 12.0833 14.4833 12.0833 13.3333C12.0833 12.1833 11.15 11.25 10 11.25" stroke="black" stroke-width="1.5" stroke-linecap="round" stroke-linejoin="round"/>
<path d="M18.3333 14.1663V12.4997C18.3333 9.16634 17.5 8.33301 14.1667 8.33301H5.83333C2.5 8.33301 1.66666 9.16634 1.66666 12.4997V14.1663C1.66666 17.4997 2.5 18.333 5.83333 18.333H14.1667C15.6333 18.333 16.6167 18.1747 17.2583 17.708" stroke="black" stroke-width="1.5" stroke-linecap="round" stroke-linejoin="round"/>
</g>
</g>
<defs>
<clipPath id="clip0_23_1505">
<rect width="20" height="20" fill="white"/>
</clipPath>
</defs>
</svg>
