<svg width="18" height="18" viewBox="0 0 18 18" fill="none" xmlns="http://www.w3.org/2000/svg">
<g clip-path="url(#clip0_23_597)">
<path d="M5.12718 5.17619L3.13874 3.90213C3.09866 3.87756 3.06466 3.84422 3.0393 3.80463C3.01394 3.76503 2.99789 3.72021 2.99234 3.67352C2.98679 3.62683 2.99189 3.57949 3.00726 3.53506C3.02264 3.49062 3.04787 3.45025 3.08109 3.41697L3.82781 2.67025C3.97124 2.52681 4.21312 2.55775 4.31577 2.73353L5.5589 4.75431C5.72202 5.03275 5.40281 5.34494 5.12718 5.17619ZM3.38906 11.3046L1.07999 11.351C1.03304 11.352 0.98693 11.3637 0.945125 11.3851C0.903319 11.4065 0.866905 11.4371 0.838619 11.4746C0.810334 11.512 0.790912 11.5555 0.781813 11.6015C0.772715 11.6476 0.774176 11.6951 0.786087 11.7406L1.05468 12.7615C1.10671 12.9584 1.33031 13.0526 1.50749 12.9542L3.54796 11.8868C3.82921 11.7279 3.71249 11.2976 3.38906 11.3046ZM8.75249 15.2267L8.24624 17.4753C8.19984 17.6707 8.34749 17.8592 8.54859 17.8592H9.60468C9.80859 17.8592 9.95624 17.6665 9.90562 17.4696L9.35577 15.221C9.27421 14.9074 8.82843 14.9117 8.75249 15.2267ZM12.8728 5.17619L14.8612 3.90213C15.0328 3.79666 15.0609 3.559 14.9189 3.41697L14.1722 2.67025C14.1385 2.63673 14.0976 2.61136 14.0526 2.59609C14.0077 2.58083 13.9598 2.57607 13.9127 2.58218C13.8656 2.58828 13.8205 2.6051 13.7809 2.63134C13.7413 2.65758 13.7082 2.69253 13.6842 2.73353L12.4411 4.75431C12.278 5.03275 12.5972 5.34494 12.8728 5.17619ZM14.6109 11.3046L16.92 11.351C16.9669 11.352 17.0131 11.3637 17.0549 11.3851C17.0967 11.4065 17.1331 11.4371 17.1614 11.4746C17.1897 11.512 17.2091 11.5555 17.2182 11.6015C17.2273 11.6476 17.2258 11.6951 17.2139 11.7406L16.9453 12.7615C16.9331 12.8074 16.9107 12.8499 16.8796 12.8858C16.8485 12.9216 16.8097 12.9499 16.766 12.9685C16.7223 12.9871 16.675 12.9955 16.6276 12.993C16.5802 12.9905 16.534 12.9772 16.4925 12.9542L14.452 11.8868C14.1708 11.7279 14.2875 11.2976 14.6109 11.3046Z" fill="#747474"/>
<path d="M8.87718 1.24072C8.92254 1.14963 9.03784 1.14103 9.09886 1.20654L9.12132 1.23877L11.0041 5.53467C11.1113 5.77904 11.2827 5.99009 11.4993 6.146C11.7158 6.30183 11.9699 6.3973 12.2356 6.42139H12.2366L16.8215 6.83154C16.9293 6.84847 16.9727 6.9767 16.8996 7.05615L13.4485 9.95557C13.0788 10.2661 12.8846 10.7333 12.9202 11.2075L12.9494 11.4106L13.9543 16.1157H13.9553C13.9739 16.2265 13.8591 16.3087 13.761 16.2593L9.75316 13.9126H9.75414C9.52566 13.7784 9.2652 13.7076 9.00023 13.7075C8.80147 13.7075 8.6051 13.7472 8.42308 13.8237L8.24632 13.9126L4.24242 16.2563C4.15529 16.3021 4.05525 16.2429 4.04417 16.1538L4.04515 16.1138L5.05101 11.4077V11.4067C5.16482 10.8688 4.97524 10.3103 4.55199 9.95459H4.55101L1.09984 7.05908C1.02771 6.98222 1.06895 6.85478 1.1721 6.83447L5.76292 6.42236C6.02848 6.39829 6.2828 6.30365 6.49925 6.14795C6.71581 5.99204 6.88721 5.78002 6.99437 5.53564L8.87718 1.24072Z" stroke="black"/>
</g>
<defs>
<clipPath id="clip0_23_597">
<rect width="18" height="18" fill="white"/>
</clipPath>
</defs>
</svg>
