<svg width="22" height="22" viewBox="0 0 22 22" fill="none" xmlns="http://www.w3.org/2000/svg">
<g clip-path="url(#clip0_23_1841)">
<mask id="mask0_23_1841" style="mask-type:luminance" maskUnits="userSpaceOnUse" x="0" y="0" width="22" height="22">
<path d="M22 0H0V22H22V0Z" fill="white"/>
</mask>
<g mask="url(#mask0_23_1841)">
<path d="M6.87495 13.979C6.70078 13.979 6.52662 13.9149 6.38912 13.7774C6.12328 13.5115 6.12328 13.0715 6.38912 12.8057L9.32241 9.87237C9.46908 9.7257 9.66158 9.65237 9.87241 9.6707C10.0741 9.68904 10.2574 9.79904 10.3766 9.9732L11.3757 11.4765L14.6299 8.22232C14.8957 7.95649 15.3357 7.95649 15.6016 8.22232C15.8674 8.48816 15.8674 8.92816 15.6016 9.19404L11.7516 13.044C11.6049 13.1907 11.4124 13.264 11.2016 13.2457C10.9999 13.2274 10.8166 13.1174 10.6974 12.9432L9.69825 11.4399L7.36078 13.7774C7.22328 13.9149 7.04912 13.979 6.87495 13.979Z" fill="#010102"/>
<path d="M15.125 11.2293C14.7492 11.2293 14.4375 10.9177 14.4375 10.5418V9.396H13.2917C12.9158 9.396 12.6042 9.08433 12.6042 8.7085C12.6042 8.33266 12.9158 8.021 13.2917 8.021H15.125C15.5008 8.021 15.8125 8.33266 15.8125 8.7085V10.5418C15.8125 10.9177 15.5008 11.2293 15.125 11.2293Z" fill="#010102"/>
<path d="M13.75 20.8543H8.25C3.2725 20.8543 1.14584 18.7277 1.14584 13.7502V8.25016C1.14584 3.27266 3.2725 1.146 8.25 1.146H13.75C18.7275 1.146 20.8542 3.27266 20.8542 8.25016V13.7502C20.8542 18.7277 18.7275 20.8543 13.75 20.8543ZM8.25 2.521C4.02417 2.521 2.52084 4.02433 2.52084 8.25016V13.7502C2.52084 17.976 4.02417 19.4793 8.25 19.4793H13.75C17.9758 19.4793 19.4792 17.976 19.4792 13.7502V8.25016C19.4792 4.02433 17.9758 2.521 13.75 2.521H8.25Z" fill="#010102"/>
</g>
</g>
<defs>
<clipPath id="clip0_23_1841">
<rect width="22" height="22" fill="white"/>
</clipPath>
</defs>
</svg>
