<svg width="28" height="28" viewBox="0 0 28 28" fill="none" xmlns="http://www.w3.org/2000/svg">
<path d="M26.9063 10.7986L20.7813 3.79859C20.6994 3.70506 20.5985 3.63005 20.4853 3.57856C20.3722 3.52708 20.2493 3.50029 20.125 3.5H7.87501C7.75069 3.50029 7.62786 3.52708 7.5147 3.57856C7.40155 3.63005 7.30066 3.70506 7.21876 3.79859L1.09376 10.7986C0.950872 10.9617 0.873658 11.1721 0.877094 11.389C0.880529 11.6058 0.96437 11.8137 1.11236 11.9722L13.3624 25.0972C13.4442 25.185 13.5433 25.2549 13.6534 25.3028C13.7634 25.3506 13.8822 25.3753 14.0022 25.3753C14.1222 25.3753 14.241 25.3506 14.351 25.3028C14.4611 25.2549 14.5602 25.185 14.642 25.0972L26.892 11.9722C27.0394 11.8131 27.1225 11.605 27.1251 11.3881C27.1277 11.1713 27.0497 10.9612 26.9063 10.7986ZM24.3217 10.5H19.6875L15.75 5.25H19.728L24.3217 10.5ZM8.1572 12.25L11.4527 20.4892L3.76361 12.25H8.1572ZM17.9572 12.25L14 22.1441L10.0428 12.25H17.9572ZM10.5 10.5L14 5.83297L17.5 10.5H10.5ZM19.8428 12.25H24.2364L16.5474 20.4892L19.8428 12.25ZM8.27204 5.25H12.25L8.31251 10.5H3.67829L8.27204 5.25Z" fill="#6D53ED"/>
</svg>
