<svg width="19" height="19" viewBox="0 0 19 19" fill="none" xmlns="http://www.w3.org/2000/svg">
<path d="M14.1891 9.45781L10.1594 7.96875L8.67505 3.93594C8.58715 3.69713 8.42811 3.49104 8.2194 3.34546C8.01068 3.19988 7.76233 3.12182 7.50786 3.12182C7.25339 3.12182 7.00505 3.19988 6.79633 3.34546C6.58762 3.49104 6.42858 3.69713 6.34068 3.93594L4.84693 7.96875L0.814114 9.45312C0.575308 9.54103 0.369212 9.70007 0.223634 9.90878C0.0780551 10.1175 0 10.3658 0 10.6203C0 10.8748 0.0780551 11.1231 0.223634 11.3318C0.369212 11.5406 0.575308 11.6996 0.814114 11.7875L4.84693 13.2812L6.3313 17.3141C6.4192 17.5529 6.57824 17.759 6.78696 17.9045C6.99567 18.0501 7.24402 18.1282 7.49849 18.1282C7.75296 18.1282 8.00131 18.0501 8.21002 17.9045C8.41873 17.759 8.57777 17.5529 8.66568 17.3141L10.1594 13.2812L14.1922 11.7969C14.431 11.709 14.6371 11.5499 14.7827 11.3412C14.9283 11.1325 15.0064 10.8842 15.0064 10.6297C15.0064 10.3752 14.9283 10.1269 14.7827 9.91816C14.6371 9.70944 14.431 9.5504 14.1922 9.4625L14.1891 9.45781ZM9.4563 12.2047C9.37146 12.236 9.29442 12.2853 9.23049 12.3492C9.16656 12.4131 9.11725 12.4902 9.08599 12.575L7.50318 16.8633L5.92349 12.5781C5.89227 12.4924 5.84267 12.4145 5.77815 12.35C5.71364 12.2855 5.63578 12.2359 5.55005 12.2047L1.26489 10.625L5.55005 9.04531C5.63578 9.0141 5.71364 8.96449 5.77815 8.89997C5.84267 8.83546 5.89227 8.7576 5.92349 8.67188L7.50318 4.38672L9.08286 8.67188C9.11413 8.75671 9.16343 8.83375 9.22736 8.89769C9.2913 8.96162 9.36834 9.01092 9.45318 9.04219L13.7415 10.625L9.4563 12.2047ZM10.0032 2.5C10.0032 2.33424 10.069 2.17527 10.1862 2.05806C10.3034 1.94085 10.4624 1.875 10.6282 1.875H11.8782V0.625C11.8782 0.45924 11.944 0.300268 12.0612 0.183058C12.1784 0.065848 12.3374 0 12.5032 0C12.6689 0 12.8279 0.065848 12.9451 0.183058C13.0623 0.300268 13.1282 0.45924 13.1282 0.625V1.875H14.3782C14.5439 1.875 14.7029 1.94085 14.8201 2.05806C14.9373 2.17527 15.0032 2.33424 15.0032 2.5C15.0032 2.66576 14.9373 2.82473 14.8201 2.94194C14.7029 3.05915 14.5439 3.125 14.3782 3.125H13.1282V4.375C13.1282 4.54076 13.0623 4.69973 12.9451 4.81694C12.8279 4.93415 12.6689 5 12.5032 5C12.3374 5 12.1784 4.93415 12.0612 4.81694C11.944 4.69973 11.8782 4.54076 11.8782 4.375V3.125H10.6282C10.4624 3.125 10.3034 3.05915 10.1862 2.94194C10.069 2.82473 10.0032 2.66576 10.0032 2.5ZM18.1282 6.25C18.1282 6.41576 18.0623 6.57473 17.9451 6.69194C17.8279 6.80915 17.6689 6.875 17.5032 6.875H16.8782V7.5C16.8782 7.66576 16.8123 7.82473 16.6951 7.94194C16.5779 8.05915 16.4189 8.125 16.2532 8.125C16.0874 8.125 15.9284 8.05915 15.8112 7.94194C15.694 7.82473 15.6282 7.66576 15.6282 7.5V6.875H15.0032C14.8374 6.875 14.6784 6.80915 14.5612 6.69194C14.444 6.57473 14.3782 6.41576 14.3782 6.25C14.3782 6.08424 14.444 5.92527 14.5612 5.80806C14.6784 5.69085 14.8374 5.625 15.0032 5.625H15.6282V5C15.6282 4.83424 15.694 4.67527 15.8112 4.55806C15.9284 4.44085 16.0874 4.375 16.2532 4.375C16.4189 4.375 16.5779 4.44085 16.6951 4.55806C16.8123 4.67527 16.8782 4.83424 16.8782 5V5.625H17.5032C17.6689 5.625 17.8279 5.69085 17.9451 5.80806C18.0623 5.92527 18.1282 6.08424 18.1282 6.25Z" fill="#6D53ED"/>
</svg>
