<svg width="22" height="22" viewBox="0 0 22 22" fill="none" xmlns="http://www.w3.org/2000/svg">
<g clip-path="url(#clip0_23_1180)">
<mask id="mask0_23_1180" style="mask-type:luminance" maskUnits="userSpaceOnUse" x="0" y="0" width="22" height="22">
<path d="M22 0H0V22H22V0Z" fill="white"/>
</mask>
<g mask="url(#mask0_23_1180)">
<path d="M18.4249 7.8929C20.2949 8.20457 20.7349 9.56122 19.3874 10.8995L17.1141 13.1729C16.7291 13.5579 16.5182 14.3004 16.6374 14.832L17.2882 17.6462C17.8016 19.8737 16.6191 20.7354 14.6482 19.5712L11.9074 17.9487C11.4124 17.6554 10.5966 17.6554 10.0924 17.9487L7.35158 19.5712C5.38992 20.7354 4.19825 19.8645 4.71158 17.6462L5.36242 14.832C5.48158 14.3004 5.27075 13.5579 4.88575 13.1729L2.61242 10.8995C1.27408 9.56122 1.70492 8.20457 3.57492 7.8929L6.49908 7.40708C6.98492 7.32458 7.57158 6.89374 7.79158 6.44458L9.40491 3.21791C10.2757 1.46708 11.7057 1.46708 12.5857 3.21791L14.1991 6.44458C14.2907 6.63708 14.4557 6.82958 14.6482 6.98541" stroke="#6D53ED" stroke-width="1.8" stroke-linecap="round" stroke-linejoin="round"/>
</g>
</g>
<defs>
<clipPath id="clip0_23_1180">
<rect width="22" height="22" fill="white"/>
</clipPath>
</defs>
</svg>
