<svg width="22" height="22" viewBox="0 0 22 22" fill="none" xmlns="http://www.w3.org/2000/svg">
<mask id="mask0_28_2103" style="mask-type:luminance" maskUnits="userSpaceOnUse" x="0" y="0" width="22" height="22">
<path d="M22 0H0V22H22V0Z" fill="white"/>
</mask>
<g mask="url(#mask0_28_2103)">
<path d="M11 14.4375C9.1025 14.4375 7.5625 12.8975 7.5625 11C7.5625 9.1025 9.1025 7.5625 11 7.5625C12.8975 7.5625 14.4375 9.1025 14.4375 11C14.4375 12.8975 12.8975 14.4375 11 14.4375ZM11 8.9375C9.86333 8.9375 8.9375 9.86333 8.9375 11C8.9375 12.1367 9.86333 13.0625 11 13.0625C12.1367 13.0625 13.0625 12.1367 13.0625 11C13.0625 9.86333 12.1367 8.9375 11 8.9375Z" fill="#010102"/>
<path d="M13.9425 20.3413C13.75 20.3413 13.5575 20.3138 13.365 20.2679C12.7966 20.1121 12.32 19.7546 12.0175 19.2504L11.9075 19.0671C11.3666 18.1321 10.6241 18.1321 10.0833 19.0671L9.98248 19.2413C9.67998 19.7546 9.20331 20.1213 8.63498 20.2679C8.05748 20.4238 7.46165 20.3413 6.95748 20.0388L5.38081 19.1313C4.82165 18.8104 4.41831 18.2879 4.24415 17.6554C4.07915 17.0229 4.16165 16.3721 4.48248 15.8129C4.74831 15.3454 4.82165 14.9238 4.66581 14.6579C4.50998 14.3921 4.11581 14.2363 3.57498 14.2363C2.23665 14.2363 1.14581 13.1454 1.14581 11.8071V10.1938C1.14581 8.85542 2.23665 7.76459 3.57498 7.76459C4.11581 7.76459 4.50998 7.60876 4.66581 7.34293C4.82165 7.07709 4.75748 6.65543 4.48248 6.18793C4.16165 5.62876 4.07915 4.96876 4.24415 4.34543C4.40915 3.71293 4.81248 3.19043 5.38081 2.86959L6.96665 1.96209C8.00248 1.34793 9.36831 1.70543 9.99164 2.75959L10.1016 2.94293C10.6425 3.87793 11.385 3.87793 11.9258 2.94293L12.0266 2.76876C12.65 1.70543 14.0158 1.34793 15.0608 1.97126L16.6375 2.87876C17.1966 3.19959 17.6 3.72209 17.7741 4.35459C17.9391 4.98709 17.8566 5.63793 17.5358 6.19709C17.27 6.66459 17.1966 7.08626 17.3525 7.35209C17.5083 7.61793 17.9025 7.77376 18.4433 7.77376C19.7816 7.77376 20.8725 8.86459 20.8725 10.2029V11.8163C20.8725 13.1546 19.7816 14.2454 18.4433 14.2454C17.9025 14.2454 17.5083 14.4013 17.3525 14.6671C17.1966 14.9329 17.2608 15.3546 17.5358 15.8221C17.8566 16.3813 17.9483 17.0413 17.7741 17.6646C17.6091 18.2971 17.2058 18.8196 16.6375 19.1404L15.0516 20.0479C14.7033 20.2404 14.3275 20.3413 13.9425 20.3413ZM11 16.9496C11.8158 16.9496 12.5766 17.4629 13.0991 18.3704L13.2 18.5446C13.31 18.7371 13.4933 18.8746 13.7133 18.9296C13.9333 18.9846 14.1533 18.9571 14.3366 18.8471L15.9225 17.9304C16.1608 17.7929 16.3441 17.5638 16.4175 17.2888C16.4908 17.0138 16.4541 16.7296 16.3166 16.4913C15.7941 15.5929 15.73 14.6671 16.1333 13.9613C16.5366 13.2554 17.3708 12.8521 18.4158 12.8521C19.0025 12.8521 19.47 12.3846 19.47 11.7979V10.1846C19.47 9.6071 19.0025 9.13042 18.4158 9.13042C17.3708 9.13042 16.5366 8.72709 16.1333 8.02126C15.73 7.31543 15.7941 6.38959 16.3166 5.49126C16.4541 5.25293 16.4908 4.96876 16.4175 4.69376C16.3441 4.41876 16.17 4.19876 15.9316 4.05209L14.3458 3.14459C13.9516 2.90626 13.4291 3.04376 13.1908 3.44709L13.09 3.62126C12.5675 4.52876 11.8066 5.04209 10.9908 5.04209C10.175 5.04209 9.41415 4.52876 8.89165 3.62126L8.79081 3.43793C8.56165 3.05293 8.04831 2.91543 7.65415 3.14459L6.06831 4.06126C5.82998 4.19876 5.64665 4.42793 5.57331 4.70293C5.49998 4.97793 5.53665 5.26209 5.67415 5.50043C6.19665 6.39876 6.26081 7.32459 5.85748 8.03043C5.45415 8.73626 4.61998 9.13959 3.57498 9.13959C2.98831 9.13959 2.52081 9.6071 2.52081 10.1938V11.8071C2.52081 12.3846 2.98831 12.8613 3.57498 12.8613C4.61998 12.8613 5.45415 13.2646 5.85748 13.9704C6.26081 14.6763 6.19665 15.6021 5.67415 16.5004C5.53665 16.7388 5.49998 17.0229 5.57331 17.2979C5.64665 17.5729 5.82081 17.7929 6.05915 17.9396L7.64498 18.8471C7.83748 18.9663 8.06665 18.9938 8.27748 18.9388C8.49748 18.8838 8.68081 18.7371 8.79998 18.5446L8.90081 18.3704C9.42331 17.4721 10.1841 16.9496 11 16.9496Z" fill="#010102"/>
</g>
</svg>
