<svg width="28" height="28" viewBox="0 0 28 28" fill="none" xmlns="http://www.w3.org/2000/svg">
<path d="M22.75 4.375H5.25C4.78587 4.375 4.34075 4.55937 4.01256 4.88756C3.68437 5.21575 3.5 5.66087 3.5 6.125V12.25C3.5 18.0162 6.29125 21.5108 8.63297 23.427C11.1552 25.4898 13.6642 26.1909 13.7736 26.2194C13.924 26.2603 14.0826 26.2603 14.233 26.2194C14.3423 26.1909 16.8481 25.4898 19.3736 23.427C21.7087 21.5108 24.5 18.0162 24.5 12.25V6.125C24.5 5.66087 24.3156 5.21575 23.9874 4.88756C23.6592 4.55937 23.2141 4.375 22.75 4.375ZM22.75 12.25C22.75 16.3045 21.2559 19.5956 18.3094 22.0303C17.0267 23.0866 15.5679 23.9085 14 24.4584C12.4526 23.9181 11.0118 23.1107 9.74312 22.073C6.76156 19.6339 5.25 16.3297 5.25 12.25V6.125H22.75V12.25Z" fill="#2BA650"/>
</svg>
