<svg width="24" height="24" viewBox="0 0 24 24" fill="none" xmlns="http://www.w3.org/2000/svg">
<path d="M21.5156 10.5937L15.5681 8.43187L13.4062 2.48437C13.2997 2.1973 13.1078 1.94972 12.8565 1.77489C12.6051 1.60006 12.3062 1.50635 12 1.50635C11.6938 1.50635 11.3949 1.60006 11.1435 1.77489C10.8922 1.94972 10.7003 2.1973 10.5937 2.48437L8.43187 8.43187L2.48437 10.5937C2.1973 10.7003 1.94972 10.8922 1.77489 11.1435C1.60006 11.3949 1.50635 11.6938 1.50635 12C1.50635 12.3062 1.60006 12.6051 1.77489 12.8565C1.94972 13.1078 2.1973 13.2997 2.48437 13.4062L8.43187 15.5691L10.5937 21.5156C10.7003 21.8027 10.8922 22.0503 11.1435 22.2251C11.3949 22.3999 11.6938 22.4936 12 22.4936C12.3062 22.4936 12.6051 22.3999 12.8565 22.2251C13.1078 22.0503 13.2997 21.8027 13.4062 21.5156L15.5691 15.5681L21.5156 13.4062C21.8027 13.2997 22.0503 13.1078 22.2251 12.8565C22.3999 12.6051 22.4936 12.3062 22.4936 12C22.4936 11.6938 22.3999 11.3949 22.2251 11.1435C22.0503 10.8922 21.8027 10.7003 21.5156 10.5937ZM14.7262 14.2781C14.6234 14.3156 14.5299 14.3751 14.4525 14.4525C14.3751 14.5299 14.3156 14.6234 14.2781 14.7262L12 20.9906L9.72187 14.7262C9.68441 14.6234 9.62488 14.5299 9.54746 14.4525C9.47005 14.3751 9.37662 14.3156 9.27374 14.2781L3.00937 12L9.27374 9.72187C9.37662 9.68441 9.47005 9.62488 9.54746 9.54746C9.62488 9.47005 9.68441 9.37662 9.72187 9.27374L12 3.00937L14.2781 9.27374C14.3156 9.37662 14.3751 9.47005 14.4525 9.54746C14.5299 9.62488 14.6234 9.68441 14.7262 9.72187L20.9906 12L14.7262 14.2781Z" fill="#F6C70C"/>
</svg>
