<svg width="40" height="40" viewBox="0 0 40 40" fill="none" xmlns="http://www.w3.org/2000/svg">
<rect width="40" height="40" rx="12" fill="#6D53ED"/>
<g clip-path="url(#clip0_28_2845)">
<path d="M15.6969 15.7513L13.4875 14.3357C13.443 14.3084 13.4052 14.2714 13.377 14.2274C13.3488 14.1834 13.331 14.1336 13.3248 14.0817C13.3187 14.0298 13.3243 13.9772 13.3414 13.9278C13.3585 13.8785 13.3865 13.8336 13.4234 13.7966L14.2531 12.9669C14.4125 12.8076 14.6813 12.8419 14.7953 13.0373L16.1766 15.2826C16.3578 15.5919 16.0031 15.9388 15.6969 15.7513ZM13.7656 22.5607L11.2 22.6123C11.1478 22.6134 11.0966 22.6263 11.0502 22.6501C11.0037 22.6739 10.9632 22.7079 10.9318 22.7495C10.9004 22.7912 10.8788 22.8394 10.8687 22.8906C10.8586 22.9418 10.8602 22.9946 10.8734 23.0451L11.1719 24.1794C11.2297 24.3982 11.4781 24.5029 11.675 24.3935L13.9422 23.2076C14.2547 23.031 14.125 22.5529 13.7656 22.5607ZM19.725 26.9185L19.1625 29.4169C19.1109 29.6341 19.275 29.8435 19.4984 29.8435H20.6719C20.8984 29.8435 21.0625 29.6294 21.0063 29.4107L20.3953 26.9123C20.3047 26.5638 19.8094 26.5685 19.725 26.9185ZM24.3031 15.7513L26.5125 14.3357C26.7031 14.2185 26.7344 13.9544 26.5766 13.7966L25.7469 12.9669C25.7095 12.9297 25.664 12.9015 25.6141 12.8845C25.5641 12.8676 25.5109 12.8623 25.4585 12.8691C25.4062 12.8759 25.3561 12.8946 25.3121 12.9237C25.2681 12.9529 25.2314 12.9917 25.2047 13.0373L23.8234 15.2826C23.6422 15.5919 23.9969 15.9388 24.3031 15.7513ZM26.2344 22.5607L28.8 22.6123C28.8522 22.6134 28.9034 22.6263 28.9499 22.6501C28.9963 22.6739 29.0368 22.7079 29.0682 22.7495C29.0996 22.7912 29.1212 22.8394 29.1313 22.8906C29.1414 22.9418 29.1398 22.9946 29.1266 23.0451L28.8281 24.1794C28.8146 24.2304 28.7897 24.2776 28.7551 24.3175C28.7206 24.3574 28.6774 24.3888 28.6289 24.4095C28.5804 24.4301 28.5278 24.4394 28.4751 24.4366C28.4224 24.4339 28.3711 24.4191 28.325 24.3935L26.0578 23.2076C25.7453 23.031 25.875 22.5529 26.2344 22.5607Z" fill="#A696F4"/>
<path d="M19.8137 11.3535C19.882 11.2168 20.0576 11.2021 20.1506 11.3018L20.1848 11.3516L22.2776 16.127C22.3927 16.3894 22.5763 16.6168 22.8088 16.7842C23.0413 16.9515 23.3146 17.0532 23.5999 17.0791H23.6008L28.7034 17.5371C28.8661 17.5659 28.9296 17.7628 28.8137 17.8818L24.9788 21.1045C24.5534 21.4618 24.3442 22.0118 24.4231 22.5576L24.4426 22.666L25.5588 27.8965H25.5598C25.5886 28.0651 25.414 28.1918 25.2639 28.1152L20.8088 25.5059H20.8079C20.5629 25.3623 20.2842 25.2862 20.0002 25.2861C19.7867 25.2861 19.5757 25.3289 19.3801 25.4111L19.1917 25.5059L14.7336 28.1143C14.6026 28.1787 14.4544 28.0899 14.4377 27.9561L14.4397 27.8955L15.5579 22.6641V22.6631C15.6802 22.0853 15.4763 21.4855 15.0217 21.1035V21.1025L11.1838 17.8838C11.0688 17.7651 11.135 17.5632 11.2991 17.5371L16.3977 17.0811H16.3987C16.6839 17.0551 16.9573 16.9525 17.1897 16.7852C17.364 16.6596 17.5104 16.5006 17.6213 16.3184L17.72 16.1289L19.8137 11.3535Z" stroke="white"/>
</g>
<defs>
<clipPath id="clip0_28_2845">
<rect width="20" height="20" fill="white" transform="translate(10 10)"/>
</clipPath>
</defs>
</svg>
