<svg width="20" height="20" viewBox="0 0 20 20" fill="none" xmlns="http://www.w3.org/2000/svg">
<path d="M18.75 4.375V9.375C18.75 9.54076 18.6841 9.69973 18.5669 9.81694C18.4497 9.93415 18.2908 10 18.125 10C17.9592 10 17.8003 9.93415 17.6831 9.81694C17.5658 9.69973 17.5 9.54076 17.5 9.375V5.88359L11.0672 12.3172C11.0091 12.3753 10.9402 12.4214 10.8643 12.4529C10.7885 12.4843 10.7071 12.5005 10.625 12.5005C10.5429 12.5005 10.4615 12.4843 10.3857 12.4529C10.3098 12.4214 10.2409 12.3753 10.1828 12.3172L7.5 9.63359L2.31718 14.8172C2.19991 14.9345 2.04085 15.0003 1.875 15.0003C1.70914 15.0003 1.55008 14.9345 1.43281 14.8172C1.31553 14.6999 1.24965 14.5409 1.24965 14.375C1.24965 14.2091 1.31553 14.0501 1.43281 13.9328L7.05781 8.30781C7.11585 8.2497 7.18478 8.2036 7.26066 8.17215C7.33653 8.1407 7.41786 8.12451 7.5 8.12451C7.58213 8.12451 7.66346 8.1407 7.73933 8.17215C7.81521 8.2036 7.88414 8.2497 7.94218 8.30781L10.625 10.9914L16.6164 5H13.125C12.9592 5 12.8003 4.93415 12.6831 4.81694C12.5658 4.69973 12.5 4.54076 12.5 4.375C12.5 4.20924 12.5658 4.05027 12.6831 3.93306C12.8003 3.81585 12.9592 3.75 13.125 3.75H18.125C18.2908 3.75 18.4497 3.81585 18.5669 3.93306C18.6841 4.05027 18.75 4.20924 18.75 4.375Z" fill="#34C759"/>
</svg>
