<svg width="22" height="22" viewBox="0 0 22 22" fill="none" xmlns="http://www.w3.org/2000/svg">
<path d="M20.625 4.8125V10.3125C20.625 10.4948 20.5526 10.6697 20.4236 10.7986C20.2947 10.9276 20.1198 11 19.9375 11C19.7551 11 19.5803 10.9276 19.4513 10.7986C19.3224 10.6697 19.25 10.4948 19.25 10.3125V6.47195L12.1739 13.5489C12.11 13.6128 12.0342 13.6635 11.9508 13.6981C11.8673 13.7327 11.7778 13.7505 11.6875 13.7505C11.5971 13.7505 11.5077 13.7327 11.4242 13.6981C11.3408 13.6635 11.2649 13.6128 11.2011 13.5489L8.24998 10.597L2.54889 16.2989C2.41989 16.4279 2.24492 16.5004 2.06249 16.5004C1.88005 16.5004 1.70508 16.4279 1.57608 16.2989C1.44708 16.1699 1.3746 15.9949 1.3746 15.8125C1.3746 15.6301 1.44708 15.4551 1.57608 15.3261L7.76358 9.13859C7.82743 9.07467 7.90325 9.02396 7.98671 8.98937C8.07017 8.95477 8.15964 8.93696 8.24998 8.93696C8.34033 8.93696 8.4298 8.95477 8.51326 8.98937C8.59672 9.02396 8.67254 9.07467 8.73639 9.13859L11.6875 12.0905L18.278 5.5H14.4375C14.2551 5.5 14.0803 5.42757 13.9513 5.29864C13.8224 5.1697 13.75 4.99484 13.75 4.8125C13.75 4.63016 13.8224 4.4553 13.9513 4.32636C14.0803 4.19743 14.2551 4.125 14.4375 4.125H19.9375C20.1198 4.125 20.2947 4.19743 20.4236 4.32636C20.5526 4.4553 20.625 4.63016 20.625 4.8125Z" fill="#6D53ED"/>
</svg>
